<mxfile host="app.diagrams.net" modified="2024-03-15T11:42:42.975Z" agent="Mozilla/5.0 (Windows NT 10.0; Win64; x64) AppleWebKit/537.36 (KHTML, like Gecko) Chrome/122.0.0.0 Safari/537.36" etag="Lg_EafZ9MVlLLjh-K-s9" version="24.0.5" type="device">
  <diagram id="C5RBs43oDa-KdzZeNtuy" name="Page-1">
    <mxGraphModel dx="1877" dy="530" grid="1" gridSize="10" guides="1" tooltips="1" connect="1" arrows="1" fold="1" page="1" pageScale="1" pageWidth="827" pageHeight="1169" math="0" shadow="0">
      <root>
        <mxCell id="WIyWlLk6GJQsqaUBKTNV-0" />
        <mxCell id="WIyWlLk6GJQsqaUBKTNV-1" parent="WIyWlLk6GJQsqaUBKTNV-0" />
        <mxCell id="y3IRUPU8SL6jcAyUx0W9-0" value="&lt;font style=&quot;font-size: 20px;&quot;&gt;Utente&lt;/font&gt;" style="shape=umlActor;verticalLabelPosition=bottom;verticalAlign=top;html=1;outlineConnect=0;" vertex="1" parent="WIyWlLk6GJQsqaUBKTNV-1">
          <mxGeometry x="-750" y="210" width="30" height="60" as="geometry" />
        </mxCell>
        <mxCell id="y3IRUPU8SL6jcAyUx0W9-1" value="" style="rounded=0;whiteSpace=wrap;html=1;fillColor=none;" vertex="1" parent="WIyWlLk6GJQsqaUBKTNV-1">
          <mxGeometry x="-640" y="40" width="510" height="330" as="geometry" />
        </mxCell>
        <mxCell id="y3IRUPU8SL6jcAyUx0W9-3" value="" style="endArrow=none;html=1;rounded=0;entryX=1.003;entryY=0.153;entryDx=0;entryDy=0;entryPerimeter=0;exitX=-0.003;exitY=0.153;exitDx=0;exitDy=0;exitPerimeter=0;" edge="1" parent="WIyWlLk6GJQsqaUBKTNV-1" source="y3IRUPU8SL6jcAyUx0W9-1" target="y3IRUPU8SL6jcAyUx0W9-1">
          <mxGeometry width="50" height="50" relative="1" as="geometry">
            <mxPoint x="160" y="153" as="sourcePoint" />
            <mxPoint x="440" y="260" as="targetPoint" />
            <Array as="points" />
          </mxGeometry>
        </mxCell>
        <mxCell id="y3IRUPU8SL6jcAyUx0W9-4" value="&lt;font style=&quot;font-size: 22px;&quot;&gt;APPLICAZIONE WEB&lt;/font&gt;" style="text;html=1;align=center;verticalAlign=middle;whiteSpace=wrap;rounded=0;" vertex="1" parent="WIyWlLk6GJQsqaUBKTNV-1">
          <mxGeometry x="-501.25" y="50" width="232.5" height="40" as="geometry" />
        </mxCell>
        <mxCell id="y3IRUPU8SL6jcAyUx0W9-11" value="" style="ellipse;whiteSpace=wrap;html=1;fillColor=none;" vertex="1" parent="WIyWlLk6GJQsqaUBKTNV-1">
          <mxGeometry x="-570" y="200" width="120" height="60" as="geometry" />
        </mxCell>
        <mxCell id="y3IRUPU8SL6jcAyUx0W9-12" value="" style="ellipse;whiteSpace=wrap;html=1;fillColor=none;" vertex="1" parent="WIyWlLk6GJQsqaUBKTNV-1">
          <mxGeometry x="-570" y="290" width="120" height="60" as="geometry" />
        </mxCell>
        <mxCell id="y3IRUPU8SL6jcAyUx0W9-13" value="" style="ellipse;whiteSpace=wrap;html=1;fillColor=none;" vertex="1" parent="WIyWlLk6GJQsqaUBKTNV-1">
          <mxGeometry x="-570" y="110" width="120" height="60" as="geometry" />
        </mxCell>
        <mxCell id="y3IRUPU8SL6jcAyUx0W9-16" value="&lt;font style=&quot;font-size: 20px;&quot;&gt;Visitatore&lt;/font&gt;" style="shape=umlActor;verticalLabelPosition=bottom;verticalAlign=top;html=1;outlineConnect=0;" vertex="1" parent="WIyWlLk6GJQsqaUBKTNV-1">
          <mxGeometry x="-80" y="245" width="30" height="60" as="geometry" />
        </mxCell>
        <mxCell id="y3IRUPU8SL6jcAyUx0W9-17" value="&lt;font style=&quot;font-size: 16px;&quot;&gt;Scrivere storie&lt;/font&gt;" style="text;html=1;align=center;verticalAlign=middle;whiteSpace=wrap;rounded=0;" vertex="1" parent="WIyWlLk6GJQsqaUBKTNV-1">
          <mxGeometry x="-540" y="125" width="60" height="30" as="geometry" />
        </mxCell>
        <mxCell id="y3IRUPU8SL6jcAyUx0W9-18" value="&lt;font style=&quot;font-size: 16px;&quot;&gt;Giocare storie&lt;/font&gt;" style="text;html=1;align=center;verticalAlign=middle;whiteSpace=wrap;rounded=0;" vertex="1" parent="WIyWlLk6GJQsqaUBKTNV-1">
          <mxGeometry x="-540" y="215" width="60" height="30" as="geometry" />
        </mxCell>
        <mxCell id="y3IRUPU8SL6jcAyUx0W9-20" value="&lt;font style=&quot;font-size: 16px;&quot;&gt;Gestione storie&lt;/font&gt;" style="text;html=1;align=center;verticalAlign=middle;whiteSpace=wrap;rounded=0;" vertex="1" parent="WIyWlLk6GJQsqaUBKTNV-1">
          <mxGeometry x="-540" y="305" width="60" height="30" as="geometry" />
        </mxCell>
        <mxCell id="y3IRUPU8SL6jcAyUx0W9-21" value="" style="ellipse;whiteSpace=wrap;html=1;fillColor=none;" vertex="1" parent="WIyWlLk6GJQsqaUBKTNV-1">
          <mxGeometry x="-340" y="95" width="100" height="55" as="geometry" />
        </mxCell>
        <mxCell id="y3IRUPU8SL6jcAyUx0W9-22" value="" style="ellipse;whiteSpace=wrap;html=1;fillColor=none;" vertex="1" parent="WIyWlLk6GJQsqaUBKTNV-1">
          <mxGeometry x="-300" y="200" width="120" height="60" as="geometry" />
        </mxCell>
        <mxCell id="y3IRUPU8SL6jcAyUx0W9-24" value="" style="ellipse;whiteSpace=wrap;html=1;fillColor=none;" vertex="1" parent="WIyWlLk6GJQsqaUBKTNV-1">
          <mxGeometry x="-300" y="290" width="120" height="60" as="geometry" />
        </mxCell>
        <mxCell id="y3IRUPU8SL6jcAyUx0W9-25" value="&lt;font style=&quot;font-size: 16px;&quot;&gt;Collegare scenari&lt;/font&gt;" style="text;html=1;align=center;verticalAlign=middle;whiteSpace=wrap;rounded=0;" vertex="1" parent="WIyWlLk6GJQsqaUBKTNV-1">
          <mxGeometry x="-320" y="107.5" width="60" height="30" as="geometry" />
        </mxCell>
        <mxCell id="y3IRUPU8SL6jcAyUx0W9-26" value="&lt;font style=&quot;font-size: 16px;&quot;&gt;Effettuare registrazione&lt;/font&gt;" style="text;html=1;align=center;verticalAlign=middle;whiteSpace=wrap;rounded=0;" vertex="1" parent="WIyWlLk6GJQsqaUBKTNV-1">
          <mxGeometry x="-267.5" y="215" width="60" height="30" as="geometry" />
        </mxCell>
        <mxCell id="y3IRUPU8SL6jcAyUx0W9-27" value="&lt;font style=&quot;font-size: 16px;&quot;&gt;Visualizza storie&lt;/font&gt;" style="text;html=1;align=center;verticalAlign=middle;whiteSpace=wrap;rounded=0;" vertex="1" parent="WIyWlLk6GJQsqaUBKTNV-1">
          <mxGeometry x="-270" y="305" width="60" height="30" as="geometry" />
        </mxCell>
        <mxCell id="y3IRUPU8SL6jcAyUx0W9-29" value="" style="endArrow=none;html=1;rounded=0;entryX=0;entryY=0.5;entryDx=0;entryDy=0;" edge="1" parent="WIyWlLk6GJQsqaUBKTNV-1" target="y3IRUPU8SL6jcAyUx0W9-13">
          <mxGeometry width="50" height="50" relative="1" as="geometry">
            <mxPoint x="-700" y="220" as="sourcePoint" />
            <mxPoint x="-650" y="170" as="targetPoint" />
          </mxGeometry>
        </mxCell>
        <mxCell id="y3IRUPU8SL6jcAyUx0W9-30" value="" style="endArrow=none;html=1;rounded=0;entryX=0;entryY=0.5;entryDx=0;entryDy=0;" edge="1" parent="WIyWlLk6GJQsqaUBKTNV-1" target="y3IRUPU8SL6jcAyUx0W9-11">
          <mxGeometry width="50" height="50" relative="1" as="geometry">
            <mxPoint x="-700" y="245" as="sourcePoint" />
            <mxPoint x="-570" y="165" as="targetPoint" />
          </mxGeometry>
        </mxCell>
        <mxCell id="y3IRUPU8SL6jcAyUx0W9-31" value="" style="endArrow=none;html=1;rounded=0;entryX=0;entryY=0.5;entryDx=0;entryDy=0;" edge="1" parent="WIyWlLk6GJQsqaUBKTNV-1" target="y3IRUPU8SL6jcAyUx0W9-12">
          <mxGeometry width="50" height="50" relative="1" as="geometry">
            <mxPoint x="-700" y="260" as="sourcePoint" />
            <mxPoint x="-570" y="180" as="targetPoint" />
          </mxGeometry>
        </mxCell>
        <mxCell id="y3IRUPU8SL6jcAyUx0W9-32" value="&amp;lt;&amp;lt;include&amp;gt;&amp;gt;" style="html=1;verticalAlign=bottom;endArrow=open;dashed=1;endSize=8;curved=0;rounded=0;exitX=0.373;exitY=0.455;exitDx=0;exitDy=0;exitPerimeter=0;entryX=-0.002;entryY=0.68;entryDx=0;entryDy=0;entryPerimeter=0;" edge="1" parent="WIyWlLk6GJQsqaUBKTNV-1" target="y3IRUPU8SL6jcAyUx0W9-21">
          <mxGeometry relative="1" as="geometry">
            <mxPoint x="-450" y="136.64999999999998" as="sourcePoint" />
            <mxPoint x="-340" y="123" as="targetPoint" />
          </mxGeometry>
        </mxCell>
        <mxCell id="y3IRUPU8SL6jcAyUx0W9-33" value="" style="endArrow=none;html=1;rounded=0;entryX=0;entryY=0.5;entryDx=0;entryDy=0;exitX=1;exitY=0.5;exitDx=0;exitDy=0;" edge="1" parent="WIyWlLk6GJQsqaUBKTNV-1" source="y3IRUPU8SL6jcAyUx0W9-22">
          <mxGeometry width="50" height="50" relative="1" as="geometry">
            <mxPoint x="-220" y="290" as="sourcePoint" />
            <mxPoint x="-90" y="275" as="targetPoint" />
          </mxGeometry>
        </mxCell>
        <mxCell id="y3IRUPU8SL6jcAyUx0W9-34" value="" style="endArrow=none;html=1;rounded=0;entryX=0;entryY=0.5;entryDx=0;entryDy=0;exitX=1;exitY=0.5;exitDx=0;exitDy=0;" edge="1" parent="WIyWlLk6GJQsqaUBKTNV-1" source="y3IRUPU8SL6jcAyUx0W9-24">
          <mxGeometry width="50" height="50" relative="1" as="geometry">
            <mxPoint x="-220" y="305" as="sourcePoint" />
            <mxPoint x="-90" y="290" as="targetPoint" />
          </mxGeometry>
        </mxCell>
      </root>
    </mxGraphModel>
  </diagram>
</mxfile>
